<?xml version="1.0" standalone="no"?>
<!DOCTYPE svg PUBLIC "-//W3C//DTD SVG 20010904//EN"
 "http://www.w3.org/TR/2001/REC-SVG-20010904/DTD/svg10.dtd">
<svg version="1.0" xmlns="http://www.w3.org/2000/svg"
 width="512.000000pt" height="512.000000pt" viewBox="0 0 512.000000 512.000000"
 preserveAspectRatio="xMidYMid meet">
<metadata>
Created by potrace 1.11, written by Peter Selinger 2001-2013
</metadata>
<g transform="translate(0.000000,512.000000) scale(0.100000,-0.100000)"
fill="#000000" stroke="none">
<path d="M2240 5102 c-153 -58 -247 -199 -250 -373 l0 -26 -47 12 c-197 50
-391 -82 -437 -297 -6 -25 -9 -27 -39 -20 -17 4 -68 7 -112 7 -67 0 -89 -4
-135 -27 -103 -50 -175 -139 -200 -245 -11 -47 -9 -143 5 -233 3 -22 11 -89
20 -180 2 -14 6 -52 9 -85 4 -33 9 -80 12 -105 2 -25 7 -61 9 -80 3 -19 7 -60
10 -90 3 -30 7 -71 10 -90 5 -36 15 -123 20 -175 12 -128 17 -172 20 -185 2
-8 7 -46 10 -85 3 -38 8 -82 9 -98 6 -45 16 -139 21 -187 2 -25 7 -61 10 -80
3 -19 7 -60 10 -91 2 -31 6 -69 9 -85 2 -16 7 -60 11 -99 3 -38 8 -81 10 -95
2 -14 7 -52 10 -85 24 -253 59 -404 131 -562 94 -208 244 -396 427 -535 76
-58 77 -59 78 -106 1 -26 2 -58 4 -72 1 -14 5 -70 9 -125 4 -55 9 -125 11
-155 2 -30 7 -93 10 -140 17 -254 22 -276 72 -299 17 -8 271 -11 826 -11 711
0 805 2 825 16 28 19 50 63 46 88 -1 11 -6 56 -9 100 -4 45 -8 83 -10 86 -1 3
-6 41 -10 84 -4 43 -8 86 -10 96 -2 9 -6 50 -9 91 -4 41 -9 85 -11 99 -5 28
-15 123 -21 190 -2 25 -6 61 -9 80 -5 31 -1 40 33 75 211 216 385 538 427 790
9 51 16 102 20 149 3 28 39 159 81 291 41 132 76 247 79 255 2 8 22 74 45 145
94 292 111 353 114 409 10 163 -82 319 -229 388 -141 65 -298 51 -422 -40 -23
-17 -96 -103 -163 -192 -67 -89 -125 -159 -127 -156 -3 3 -7 18 -9 33 -1 15
-5 46 -8 68 -3 22 -8 67 -11 100 -4 33 -8 67 -10 75 -2 8 -6 38 -9 65 -12 107
-16 138 -45 380 -11 88 -23 185 -26 215 -4 30 -8 66 -10 80 -2 14 -6 52 -10
85 -3 33 -8 67 -10 75 -2 8 -6 46 -10 83 -3 37 -8 78 -11 90 -2 12 -6 50 -10
86 -16 170 -95 282 -240 339 -73 29 -190 25 -265 -10 l-56 -25 -13 49 c-27
107 -109 208 -206 254 -72 34 -179 41 -244 16z m147 -193 c35 -11 89 -66 104
-106 10 -27 23 -116 34 -223 3 -36 8 -83 11 -105 12 -95 14 -113 19 -170 3
-33 8 -71 10 -85 2 -14 6 -56 9 -95 4 -38 8 -81 11 -95 2 -14 7 -52 10 -85 3
-33 8 -78 10 -100 3 -22 9 -85 15 -140 11 -103 15 -138 24 -215 11 -90 15
-127 26 -230 15 -147 19 -176 36 -324 7 -67 65 -107 130 -90 65 16 87 68 70
169 -2 17 -7 59 -11 95 -6 62 -10 96 -20 178 -2 20 -6 60 -9 87 -3 28 -8 73
-11 100 -3 28 -7 66 -9 85 -3 19 -7 64 -11 100 -3 36 -8 72 -10 80 -2 8 -7 53
-10 100 -4 47 -8 87 -10 90 -2 3 -6 43 -10 90 -4 47 -8 87 -10 90 -1 3 -6 41
-9 85 -4 44 -9 87 -11 95 -7 30 -18 156 -17 198 5 163 221 209 297 62 7 -14
16 -55 20 -90 3 -36 8 -76 10 -90 4 -21 11 -81 40 -327 6 -55 14 -119 20 -163
3 -19 7 -57 10 -85 3 -27 12 -104 20 -170 8 -66 17 -142 20 -170 4 -27 8 -61
10 -74 2 -14 7 -54 11 -90 3 -36 8 -74 10 -84 2 -11 6 -45 9 -76 3 -31 9 -74
12 -96 3 -22 11 -84 17 -138 l12 -98 -35 -49 c-30 -40 -48 -53 -114 -80 -151
-62 -307 -188 -390 -315 -33 -51 -38 -66 -33 -100 6 -50 43 -85 91 -85 51 0
61 7 109 74 86 121 201 206 353 262 l71 26 247 329 c136 181 259 341 274 355
102 104 294 54 336 -87 18 -61 14 -83 -44 -269 -84 -266 -151 -478 -206 -657
-33 -106 -56 -199 -60 -245 -26 -304 -155 -562 -424 -848 -34 -35 -62 -70 -62
-77 -1 -7 -2 -19 -2 -25 -1 -14 13 -164 18 -188 1 -8 6 -46 9 -85 4 -38 11
-106 16 -150 5 -44 12 -107 15 -140 4 -33 8 -71 10 -85 2 -14 7 -55 10 -92 l7
-68 -670 0 c-369 0 -673 3 -675 8 -3 4 -8 56 -11 117 -4 60 -9 130 -11 155 -7
77 -14 181 -20 280 -7 127 -14 180 -25 201 -5 9 -46 42 -89 73 -164 115 -297
266 -384 435 -76 151 -113 276 -132 451 -3 30 -8 74 -10 98 -3 23 -7 61 -10
85 -2 23 -7 69 -10 102 -4 33 -8 71 -10 85 -2 14 -6 54 -10 90 -3 36 -8 72
-10 80 -2 8 -7 53 -10 100 -4 47 -8 87 -10 90 -2 3 -6 43 -10 90 -4 47 -8 87
-10 90 -2 3 -6 43 -10 90 -3 47 -8 92 -10 100 -2 8 -7 44 -10 80 -3 36 -8 82
-10 103 -11 88 -14 115 -21 177 -3 36 -7 72 -9 80 -2 8 -6 53 -10 100 -4 47
-8 87 -10 90 -2 3 -6 43 -10 90 -4 47 -8 87 -10 90 -5 8 -19 172 -20 227 -1
146 182 208 278 94 27 -33 33 -61 52 -246 4 -38 8 -77 10 -86 2 -8 6 -53 10
-100 4 -46 8 -86 10 -89 2 -3 6 -46 10 -95 4 -50 9 -92 10 -95 2 -3 6 -39 10
-80 3 -41 8 -82 10 -90 2 -8 7 -49 10 -90 3 -41 8 -86 10 -100 2 -14 6 -50 10
-80 3 -30 7 -71 10 -90 3 -19 7 -52 10 -72 10 -86 72 -131 146 -106 45 16 62
59 55 146 -3 43 -8 86 -10 97 -2 11 -7 58 -11 105 -4 47 -8 87 -10 90 -1 3 -6
41 -10 85 -4 44 -8 82 -10 85 -2 3 -6 45 -10 95 -4 49 -8 92 -10 95 -2 3 -6
41 -9 85 -4 44 -9 87 -11 95 -2 8 -6 50 -10 93 -4 43 -8 88 -10 100 -2 12 -6
49 -10 82 -4 33 -8 74 -10 90 -2 17 -7 57 -10 90 -3 33 -8 80 -11 105 -15 127
-10 155 39 207 70 74 201 55 246 -36 12 -24 24 -90 35 -196 10 -88 19 -171 21
-185 2 -14 6 -54 10 -90 6 -68 12 -121 20 -180 3 -19 7 -60 10 -90 6 -62 14
-138 20 -190 2 -19 7 -60 10 -90 6 -52 9 -78 20 -167 2 -21 7 -65 10 -98 6
-67 13 -132 20 -185 19 -145 21 -152 65 -175 36 -19 63 -19 98 -1 45 23 56 54
48 143 -3 43 -8 89 -10 103 -3 14 -7 57 -11 95 -3 39 -8 79 -10 90 -3 11 -7
49 -10 85 -5 57 -14 143 -31 290 -6 58 -13 123 -19 180 -5 50 -12 111 -21 180
-2 25 -7 65 -10 90 -2 25 -13 126 -24 225 -11 99 -23 205 -26 235 -3 30 -7 71
-10 90 -3 19 -7 67 -9 107 -3 61 0 80 21 120 39 78 98 106 171 82z"/>
<path d="M3808 4656 c-1 -2 -62 -6 -134 -8 -134 -5 -163 -13 -196 -52 -33 -40
-13 -127 34 -142 13 -4 127 -8 253 -9 127 -1 244 -5 260 -8 17 -4 44 -9 60
-12 105 -18 193 -41 315 -85 117 -42 145 -42 185 -3 19 19 25 36 25 67 0 67
-24 83 -230 157 -14 4 -59 17 -100 28 -66 16 -108 25 -235 46 -16 3 -70 8
-120 11 -49 3 -95 7 -102 9 -6 2 -13 2 -15 1z"/>
<path d="M4855 4271 c-53 -22 -77 -92 -49 -141 34 -57 108 -67 155 -21 49 49
35 131 -26 156 -38 17 -51 17 -80 6z"/>
<path d="M3755 4233 c-11 -3 -32 -17 -47 -31 -40 -37 -39 -93 1 -133 16 -16
35 -30 43 -30 7 -1 45 -2 83 -4 340 -11 670 -137 894 -341 47 -43 68 -49 114
-33 80 27 92 106 27 174 -38 39 -171 139 -237 177 -124 73 -310 150 -418 174
-182 39 -396 61 -460 47z"/>
<path d="M654 3442 c-48 -24 -164 -121 -242 -202 -96 -98 -187 -219 -241 -321
-37 -68 -43 -87 -38 -121 8 -61 60 -94 121 -77 37 10 51 27 110 131 76 135
205 278 353 391 35 27 68 57 74 68 14 27 2 93 -21 114 -29 27 -82 35 -116 17z"/>
<path d="M703 2918 c-33 -20 -149 -163 -207 -258 -98 -158 -174 -346 -161
-398 19 -79 113 -105 171 -48 6 7 21 41 34 76 52 152 153 325 255 438 60 66
71 122 34 166 -28 32 -91 44 -126 24z"/>
</g>
</svg>
